<mxfile host="Electron" agent="Mozilla/5.0 (Macintosh; Intel Mac OS X 10_15_7) AppleWebKit/537.36 (KHTML, like Gecko) draw.io/27.0.9 Chrome/134.0.6998.205 Electron/35.4.0 Safari/537.36" version="27.0.9">
  <diagram name="Page-1" id="LVcpZOExHXka8ZbTDyQi">
    <mxGraphModel dx="1737" dy="1144" grid="1" gridSize="10" guides="1" tooltips="1" connect="1" arrows="1" fold="1" page="1" pageScale="1" pageWidth="850" pageHeight="1100" math="0" shadow="0">
      <root>
        <mxCell id="0" />
        <mxCell id="1" parent="0" />
        <mxCell id="4xD1MxHHEuVMCtm3RxLo-15" value="" style="group" vertex="1" connectable="0" parent="1">
          <mxGeometry x="760" y="400" width="370" height="210" as="geometry" />
        </mxCell>
        <mxCell id="4xD1MxHHEuVMCtm3RxLo-9" value="" style="rounded=0;whiteSpace=wrap;html=1;fillColor=none;dashed=1;" vertex="1" parent="4xD1MxHHEuVMCtm3RxLo-15">
          <mxGeometry y="30" width="370" height="180" as="geometry" />
        </mxCell>
        <mxCell id="4xD1MxHHEuVMCtm3RxLo-10" value="TOKEN &#xa;SECRET" style="shape=image;verticalLabelPosition=bottom;labelBackgroundColor=default;verticalAlign=top;aspect=fixed;imageAspect=0;image=https://files.svgcdn.io/logos/aws-secrets-manager.png;" vertex="1" parent="4xD1MxHHEuVMCtm3RxLo-15">
          <mxGeometry x="264.2857142857143" y="85" width="70" height="70" as="geometry" />
        </mxCell>
        <mxCell id="4xD1MxHHEuVMCtm3RxLo-11" value="AUTHENTICATOR" style="shape=image;verticalLabelPosition=bottom;labelBackgroundColor=default;verticalAlign=top;aspect=fixed;imageAspect=0;image=https://upload.wikimedia.org/wikipedia/commons/thumb/5/5c/Amazon_Lambda_architecture_logo.svg/800px-Amazon_Lambda_architecture_logo.svg.png;" vertex="1" parent="4xD1MxHHEuVMCtm3RxLo-15">
          <mxGeometry x="52.85714285714286" y="90" width="60" height="60" as="geometry" />
        </mxCell>
        <mxCell id="4xD1MxHHEuVMCtm3RxLo-12" style="edgeStyle=orthogonalEdgeStyle;rounded=0;orthogonalLoop=1;jettySize=auto;html=1;entryX=0;entryY=0.5;entryDx=0;entryDy=0;" edge="1" parent="4xD1MxHHEuVMCtm3RxLo-15" source="4xD1MxHHEuVMCtm3RxLo-11" target="4xD1MxHHEuVMCtm3RxLo-10">
          <mxGeometry relative="1" as="geometry" />
        </mxCell>
        <mxCell id="4xD1MxHHEuVMCtm3RxLo-27" value="" style="shape=image;verticalLabelPosition=bottom;labelBackgroundColor=default;verticalAlign=top;aspect=fixed;imageAspect=0;image=https://cloud-icons.onemodel.app/aws/Architecture-Service-Icons_01312023/Arch_Management-Governance/64/Arch_AWS-CloudFormation_64@5x.png;" vertex="1" parent="4xD1MxHHEuVMCtm3RxLo-15">
          <mxGeometry x="89.85000000000002" y="-30" width="50" height="50" as="geometry" />
        </mxCell>
        <mxCell id="4xD1MxHHEuVMCtm3RxLo-17" value="" style="group" vertex="1" connectable="0" parent="1">
          <mxGeometry x="290" y="140" width="440" height="570" as="geometry" />
        </mxCell>
        <mxCell id="4xD1MxHHEuVMCtm3RxLo-21" value="" style="group" vertex="1" connectable="0" parent="4xD1MxHHEuVMCtm3RxLo-17">
          <mxGeometry x="40" y="-13.333333333333336" width="340" height="343.33333333333337" as="geometry" />
        </mxCell>
        <mxCell id="4xD1MxHHEuVMCtm3RxLo-1" value="" style="rounded=0;whiteSpace=wrap;html=1;dashed=1;fillColor=none;" vertex="1" parent="4xD1MxHHEuVMCtm3RxLo-21">
          <mxGeometry width="340" height="233.33333333333331" as="geometry" />
        </mxCell>
        <mxCell id="4xD1MxHHEuVMCtm3RxLo-3" value="Employees &#xa;Table" style="shape=image;verticalLabelPosition=bottom;labelBackgroundColor=default;verticalAlign=top;aspect=fixed;imageAspect=0;image=https://svgmix.com/uploads/133ab8-aws-dynamodb.svg;fontSize=18;" vertex="1" parent="4xD1MxHHEuVMCtm3RxLo-21">
          <mxGeometry x="30" y="23.333333333333336" width="70" height="70" as="geometry" />
        </mxCell>
        <mxCell id="4xD1MxHHEuVMCtm3RxLo-18" style="edgeStyle=orthogonalEdgeStyle;rounded=0;orthogonalLoop=1;jettySize=auto;html=1;entryX=1;entryY=0.5;entryDx=0;entryDy=0;" edge="1" parent="4xD1MxHHEuVMCtm3RxLo-21" source="4xD1MxHHEuVMCtm3RxLo-4" target="4xD1MxHHEuVMCtm3RxLo-3">
          <mxGeometry relative="1" as="geometry" />
        </mxCell>
        <mxCell id="4xD1MxHHEuVMCtm3RxLo-4" value="Function" style="shape=image;verticalLabelPosition=bottom;labelBackgroundColor=default;verticalAlign=top;aspect=fixed;imageAspect=0;image=https://upload.wikimedia.org/wikipedia/commons/thumb/5/5c/Amazon_Lambda_architecture_logo.svg/800px-Amazon_Lambda_architecture_logo.svg.png;fontSize=18;" vertex="1" parent="4xD1MxHHEuVMCtm3RxLo-21">
          <mxGeometry x="250" y="123.33333333333334" width="70" height="70" as="geometry" />
        </mxCell>
        <mxCell id="4xD1MxHHEuVMCtm3RxLo-19" value="" style="shape=image;verticalLabelPosition=bottom;labelBackgroundColor=default;verticalAlign=top;aspect=fixed;imageAspect=0;image=https://cloud-icons.onemodel.app/aws/Architecture-Service-Icons_01312023/Arch_Management-Governance/64/Arch_AWS-CloudFormation_64@5x.png;" vertex="1" parent="1">
          <mxGeometry x="390" y="70" width="50" height="50" as="geometry" />
        </mxCell>
        <mxCell id="4xD1MxHHEuVMCtm3RxLo-2" value="&lt;font style=&quot;font-size: 21px;&quot;&gt;Employee MS&lt;/font&gt;&lt;div&gt;&lt;font style=&quot;font-size: 21px;&quot;&gt;(CF Stack)&lt;/font&gt;&lt;/div&gt;" style="text;html=1;align=center;verticalAlign=middle;whiteSpace=wrap;rounded=0;" vertex="1" parent="1">
          <mxGeometry x="437.1428571428571" y="80" width="145.71428571428572" height="20" as="geometry" />
        </mxCell>
        <mxCell id="4xD1MxHHEuVMCtm3RxLo-23" style="edgeStyle=orthogonalEdgeStyle;rounded=0;orthogonalLoop=1;jettySize=auto;html=1;entryX=0.5;entryY=1;entryDx=0;entryDy=0;" edge="1" parent="1" source="4xD1MxHHEuVMCtm3RxLo-22" target="4xD1MxHHEuVMCtm3RxLo-9">
          <mxGeometry relative="1" as="geometry" />
        </mxCell>
        <mxCell id="4xD1MxHHEuVMCtm3RxLo-22" value="" style="shape=image;verticalLabelPosition=bottom;labelBackgroundColor=default;verticalAlign=top;aspect=fixed;imageAspect=0;image=https://raw.githubusercontent.com/pulumi/pulumi-aws-apigateway/main/assets/logo.png;" vertex="1" parent="1">
          <mxGeometry x="911.67" y="689.9966666666667" width="66.67" height="66.67" as="geometry" />
        </mxCell>
        <mxCell id="4xD1MxHHEuVMCtm3RxLo-25" style="edgeStyle=orthogonalEdgeStyle;rounded=0;orthogonalLoop=1;jettySize=auto;html=1;" edge="1" parent="1" source="4xD1MxHHEuVMCtm3RxLo-24">
          <mxGeometry relative="1" as="geometry">
            <mxPoint x="945" y="760" as="targetPoint" />
          </mxGeometry>
        </mxCell>
        <mxCell id="4xD1MxHHEuVMCtm3RxLo-24" value="users" style="sketch=0;outlineConnect=0;gradientColor=none;fontColor=#545B64;strokeColor=none;fillColor=#879196;dashed=0;verticalLabelPosition=bottom;verticalAlign=top;align=center;html=1;fontSize=12;fontStyle=0;aspect=fixed;shape=mxgraph.aws4.illustration_users;pointerEvents=1" vertex="1" parent="1">
          <mxGeometry x="895" y="850" width="100" height="100" as="geometry" />
        </mxCell>
        <mxCell id="4xD1MxHHEuVMCtm3RxLo-13" value="&lt;font style=&quot;font-size: 21px;&quot;&gt;Auth MS&lt;/font&gt;&lt;div&gt;&lt;font style=&quot;font-size: 21px;&quot;&gt;(CF Stack)&lt;/font&gt;&lt;/div&gt;" style="text;html=1;align=center;verticalAlign=middle;whiteSpace=wrap;rounded=0;" vertex="1" parent="1">
          <mxGeometry x="860.0042857142857" y="380" width="190.28571428571428" height="30" as="geometry" />
        </mxCell>
        <mxCell id="4xD1MxHHEuVMCtm3RxLo-30" style="edgeStyle=orthogonalEdgeStyle;rounded=0;orthogonalLoop=1;jettySize=auto;html=1;entryX=1.001;entryY=0.451;entryDx=0;entryDy=0;entryPerimeter=0;" edge="1" parent="1" source="4xD1MxHHEuVMCtm3RxLo-27" target="4xD1MxHHEuVMCtm3RxLo-1">
          <mxGeometry relative="1" as="geometry" />
        </mxCell>
      </root>
    </mxGraphModel>
  </diagram>
</mxfile>
